:SAMPLES-PER-SECOND 30
:FULLY-SPECIFIED
:DEGREES
34
root  34.85469368 36.59010159 -14.05802449 10.01261711 -3.903555155 3.08218646
lowerback  -9.068810463 -0.2368630171 -0.3883236945
upperback  -3.442136765 0.180437997 -3.3610394
thorax  1.527050018 0.2415930033 -3.237370014
lowerneck  -13.62100029 -7.087560177 -5.50838995
upperneck  16.03470039 -9.790260315 8.128120422
head  7.879980087 -4.11920023 2.502520084
lclavicle  0 -4.497500157e-015 -2.743230041e-014
lhumerus  -48.23960114 31.75139999 62.91519928
lradius  0.001172923949 -6.507048965e-006 29.69939804
lwrist  3.192251654e-007 -3.790274832e-007 -28.79540062
lhand  -4.417981087e-031 -36.94029999 -10.58710003
lfingers  90 7.125020027 -90
lthumb  94.81621618 -25.4231656 101.1041122
rclavicle  0 -4.497500157e-015 -2.743230041e-014
rhumerus  -49.52750015 -31.7935009 -59.97290039
rradius  -5.16745672e-007 2.214343908e-008 49.44240189
rwrist  0.0003490542294 -0.002273720223 -157.2160034
rhand  -1.766548279e-031 -1.914170027 -7.626080036
rfingers  -90 -7.125020027 -90
rthumb  -86.42234549 -8.069580557 -65.99186217
rfemur  -10.55840778 14.76698875 12.68320179
rtibia  0.5215329528 -0.9970476627 17.07625008
rfoot  1.725986838 -21.69152832 -35.33799362
rtoes  4.074267502 19.59726997 -101.9896359
lfemur  -2.330772877 -15.51642513 -22.74373055
ltibia  8.000860214 -0.02882473543 4.735511303
lfoot  0.03502644226 -20.9094677 35.53352737
ltoes  -8.658281333 -18.09828505 -116.1136133
35
root  34.85248295 36.58981924 -14.05306538 10.0281496 -3.909753084 3.078963995
lowerback  -9.027878761 -0.2481179088 -0.3866172433
upperback  -3.445913553 0.1639689952 -3.362028599
thorax  1.498849988 0.2330349982 -3.242439985
lowerneck  -13.55770016 -7.162799835 -5.602729797
upperneck  16.00060081 -9.887849808 8.201370239
head  7.87361002 -4.1665802 2.531480074
lclavicle  0 -4.497500157e-015 -2.743230041e-014
lhumerus  -48.25790024 31.7010994 62.9612999
lradius  0.001172923949 -6.507048965e-006 29.7439003
lwrist  3.192251654e-007 -3.790274832e-007 -28.73200035
lhand  -0 -36.91109848 -10.63360023
lfingers  90 7.125020027 -90
lthumb  94.81244006 -25.46989261 101.0770517
rclavicle  0 -4.497500157e-015 -2.743230041e-014
rhumerus  -49.39929962 -31.26659966 -60.32320023
rradius  -5.16745672e-007 2.214343908e-008 50.58810043
rwrist  0.0003490542294 -0.002273720223 -157.6199951
rhand  -1.766791629e-031 -2.137300014 -7.684050083
rfingers  -90 -7.125020027 -90
rthumb  -86.48752641 -8.004549636 -66.2124668
rfemur  -10.55239868 14.71456432 12.68211365
rtibia  0.523306787 -1.00369513 17.04280281
rfoot  1.745112062 -21.68701172 -35.29811478
rtoes  4.091169883 19.59388102 -102.0400338
lfemur  -2.483848572 -15.49484539 -22.66905594
ltibia  7.886991501 0.006830717903 4.973300934
lfoot  0.0780300051 -21.07364845 35.55180359
ltoes  -8.676014735 -18.09001178 -116.1707111
36
root  34.85008901 36.58917645 -14.04737788 10.03183174 -3.937184572 3.089039326
lowerback  -8.996400833 -0.2513534427 -0.3668932617
upperback  -3.447069883 0.1610759944 -3.362793922
thorax  1.479719996 0.2307075709 -3.248990059
lowerneck  -13.51900005 -7.239369869 -5.702559948
upperneck  15.98309994 -9.982280731 8.246029854
head  7.872545719 -4.215040207 2.55140996
lclavicle  0 -4.497500157e-015 -2.743230041e-014
lhumerus  -48.22359848 31.63850021 63.02420044
lradius  0.001172923949 -6.507048965e-006 29.73959732
lwrist  3.192251654e-007 -3.790274832e-007 -28.66959953
lhand  -0 -36.90370178 -10.60690022
lfingers  90 7.125020027 -90
lthumb  94.8032965 -25.44379348 101.0667513
rclavicle  0 -4.497500157e-015 -2.743230041e-014
rhumerus  -49.29940033 -30.69050026 -60.64799881
rradius  -5.16745672e-007 2.214343908e-008 51.77180099
rwrist  0.0003490542294 -0.002273720223 -158.451004
rhand  -1.767200013e-031 -2.466710091 -7.658199787
rfingers  -90 -7.125020027 -90
rthumb  -86.5377246 -8.010581704 -66.53179902
rfemur  -10.52790833 14.67735958 12.6719923
rtibia  0.5242403746 -1.033242106 16.99233437
rfoot  1.784645796 -21.70605469 -35.22860718
rtoes  4.069473023 19.59822859 -101.9753417
lfemur  -2.836025476 -15.53231621 -22.52712822
ltibia  7.596683502 0.02630775236 5.585307121
lfoot  0.1536187828 -21.3511982 35.57915115
ltoes  -8.718322212 -18.07018792 -116.3070345
37
root  34.84842796 36.59050408 -14.04243529 10.04682255 -3.961461782 3.094911575
lowerback  -8.964624405 -0.2514313459 -0.3530573547
upperback  -3.442009926 0.1581175923 -3.363240004
thorax  1.467509985 0.2309146672 -3.261670113
lowerneck  -13.46310043 -7.327109814 -5.779910088
upperneck  15.93400002 -10.09580135 8.291230202
head  7.873820782 -4.27244997 2.566139936
lclavicle  0 -4.497500157e-015 -2.743230041e-014
lhumerus  -48.18780136 31.56710052 63.09320068
lradius  0.001172923949 -6.507048965e-006 29.76042366
lwrist  3.192251654e-007 -3.790274832e-007 -28.5618
lhand  -4.415548489e-031 -36.89830017 -10.55959988
lfingers  90 7.125020027 -90
lthumb  94.79074775 -25.3976094 101.0566937
rclavicle  0 -4.497500157e-015 -2.743230041e-014
rhumerus  -49.2419014 -30.20159912 -60.8995018
rradius  -5.16745672e-007 2.214343908e-008 52.91870117
rwrist  0.0003490542294 -0.002273720223 -159.6119995
rhand  -1.766862857e-031 -2.198319912 -7.641699791
rfingers  -90 -7.125020027 -90
rthumb  -86.48159599 -8.039988717 -66.26945796
rfemur  -10.51722813 14.61067963 12.66063023
rtibia  0.5238724351 -1.057897091 16.94948006
rfoot  1.827031016 -21.72040176 -35.12685013
rtoes  4.073237573 19.59747599 -101.9865652
lfemur  -3.200747728 -15.55066586 -22.37534523
ltibia  7.310042381 0.04935418442 6.18070364
lfoot  0.2197876126 -21.62692451 35.57999802
ltoes  -8.701386425 -18.07813801 -116.2524466
